
        <svg width="400px" height="400px" viewBox="0 0 400 400" version="1.1" xmlns="http://www.w3.org/2000/svg" xmlns:xlink="http://www.w3.org/1999/xlink">
          <defs>
            <linearGradient x1="0%" y1="50%" x2="100%" y2="50%" id="shadeGradientLight">
              <stop stop-color="#e0e0e0" offset="0%"></stop>
              <stop stop-color="#c1c1c1" offset="16.67%"></stop>
              <stop stop-color="#a2a2a2" offset="33.33%"></stop>
              <stop stop-color="#848484" offset="50%"></stop>
              <stop stop-color="#656565" offset="66.67%"></stop>
              <stop stop-color="#464646" offset="83.33%"></stop>
              <stop stop-color="#272727" offset="100%"></stop>
            </linearGradient>
            <linearGradient x1="0%" y1="50%" x2="100%" y2="50%" id="shadeGradientDark">
              <stop stop-color="#3e484f" offset="0%"></stop>
              <stop stop-color="#4b555f" offset="16.67%"></stop>
              <stop stop-color="#57636f" offset="33.33%"></stop>
              <stop stop-color="#637180" offset="50%"></stop>
              <stop stop-color="#6f7f90" offset="66.67%"></stop>
              <stop stop-color="#7c8ca0" offset="83.33%"></stop>
              <stop stop-color="#889ab0" offset="100%"></stop>
            </linearGradient>
          </defs>
          <g id="light">
            <rect fill="#ffffff" x="0" y="0" width="400" height="200"></rect>
            <rect fill="#e0383e" x="28" y="28" width="74" height="37"></rect>
            <rect fill="#f7821c" x="118" y="28" width="74" height="37"></rect>
            <rect fill="#fbb927" x="208" y="28" width="74" height="37"></rect>
            <rect fill="#62ba46" x="298" y="28" width="74" height="37"></rect>
            <rect fill="#10b9a6" x="28" y="81" width="74" height="37"></rect>
            <rect fill="#007aff" x="118" y="81" width="74" height="37"></rect>
            <rect fill="#953d96" x="208" y="81" width="74" height="37"></rect>
            <rect fill="#f74f9e" x="298" y="81" width="74" height="37"></rect>
            <rect fill="url(#shadeGradientLight)" x="28" y="134" width="344" height="37"></rect>
          </g>
          <g id="dark" transform="translate(0.000000, 200.000000)">
            <rect fill="#323a3f" x="0" y="0" width="400" height="200"></rect>
            <rect fill="#c7253a" x="28" y="28" width="74" height="37"></rect>
            <rect fill="#5990ad" x="118" y="28" width="74" height="37"></rect>
            <rect fill="#fdeb48" x="208" y="28" width="74" height="37"></rect>
            <rect fill="#718a6d" x="298" y="28" width="74" height="37"></rect>
            <rect fill="#fd4639" x="28" y="81" width="74" height="37"></rect>
            <rect fill="#3465a4" x="118" y="81" width="74" height="37"></rect>
            <rect fill="#d79cae" x="208" y="81" width="74" height="37"></rect>
            <rect fill="#7a5776" x="298" y="81" width="74" height="37"></rect>
            <rect fill="url(#shadeGradientDark)" x="28" y="134" width="344" height="37"></rect>
          </g>
        </svg>
      